<svg xmlns="http://www.w3.org/2000/svg" width="18" height="18" viewBox="0 0 18 18">
  <path id="pay" d="M-615.565-1871a1.535,1.535,0,0,1-.6-.121,1.537,1.537,0,0,1-.49-.331,1.538,1.538,0,0,1-.331-.49,1.531,1.531,0,0,1-.121-.6v-11.312h1.662l4.957-4.955a.642.642,0,0,1,.457-.19.642.642,0,0,1,.456.19l1.6,1.6,2.75-1.692a.643.643,0,0,1,.43-.087.643.643,0,0,1,.386.209l4.309,4.923h.991v11.312a1.531,1.531,0,0,1-.121.6,1.538,1.538,0,0,1-.331.49,1.538,1.538,0,0,1-.49.331,1.535,1.535,0,0,1-.6.121Zm12.012-6.427a1.287,1.287,0,0,0,1.286,1.285,1.287,1.287,0,0,0,1.286-1.285,1.287,1.287,0,0,0-1.286-1.286A1.287,1.287,0,0,0-603.552-1877.425Zm1.747-6.427-3.213-3.67-5.963,3.67Zm-11.619,0,4.322-2.659-.93-.934-3.589,3.593Z" transform="translate(617.108 1888.998)" fill="#104744"/>
</svg>
