<svg xmlns="http://www.w3.org/2000/svg" width="20" height="14" viewBox="0 0 20 14">
  <path id="Path_19" data-name="Path 19" d="M19.076-1377h0l-8.427,14h2.324l8.427-14H19.076Zm2.856,5.4a4.455,4.455,0,0,0-1.621.291,3.682,3.682,0,0,0-1.3.841,3.82,3.82,0,0,0-.847,1.34,5.046,5.046,0,0,0-.3,1.807,5.133,5.133,0,0,0,.3,1.818,3.932,3.932,0,0,0,.847,1.361,3.614,3.614,0,0,0,1.3.851,4.474,4.474,0,0,0,1.621.291,4.379,4.379,0,0,0,1.61-.291,3.633,3.633,0,0,0,1.284-.851,4.1,4.1,0,0,0,.859-1.361A4.95,4.95,0,0,0,26-1367.32a4.867,4.867,0,0,0-.314-1.807,3.988,3.988,0,0,0-.859-1.34,3.7,3.7,0,0,0-1.284-.841A4.361,4.361,0,0,0,21.932-1371.6ZM10.067-1377a4.478,4.478,0,0,0-1.621.291,3.685,3.685,0,0,0-1.3.841,3.84,3.84,0,0,0-.847,1.34,5.047,5.047,0,0,0-.3,1.808,5.132,5.132,0,0,0,.3,1.817,3.915,3.915,0,0,0,.847,1.361,3.613,3.613,0,0,0,1.3.851,4.457,4.457,0,0,0,1.621.291,4.362,4.362,0,0,0,1.61-.291,3.637,3.637,0,0,0,1.284-.851,4.08,4.08,0,0,0,.859-1.361,4.947,4.947,0,0,0,.314-1.817,4.869,4.869,0,0,0-.314-1.808,4.008,4.008,0,0,0-.859-1.34,3.7,3.7,0,0,0-1.284-.841A4.383,4.383,0,0,0,10.067-1377Zm11.865,12.048a1.047,1.047,0,0,1-.847-.5,3.407,3.407,0,0,1-.362-1.869,5.424,5.424,0,0,1,.1-1.132,2.289,2.289,0,0,1,.266-.717.959.959,0,0,1,.388-.373,1.068,1.068,0,0,1,.46-.1,1.071,1.071,0,0,1,.461.1.959.959,0,0,1,.388.373,2.289,2.289,0,0,1,.266.717,5.576,5.576,0,0,1,.1,1.132,3.415,3.415,0,0,1-.362,1.869A1.048,1.048,0,0,1,21.932-1364.952Zm-11.865-5.4a1.046,1.046,0,0,1-.847-.5,3.414,3.414,0,0,1-.362-1.869,5.435,5.435,0,0,1,.1-1.133,2.267,2.267,0,0,1,.266-.716.963.963,0,0,1,.388-.375,1.065,1.065,0,0,1,.46-.1,1.067,1.067,0,0,1,.461.1.963.963,0,0,1,.388.375,2.267,2.267,0,0,1,.266.716,5.587,5.587,0,0,1,.1,1.133,3.421,3.421,0,0,1-.362,1.869A1.046,1.046,0,0,1,10.067-1370.353Z" transform="translate(-6 1377)" fill="#104744"/>
</svg>
