<svg xmlns="http://www.w3.org/2000/svg" width="110" height="30" viewBox="0 0 110 30">
  <path id="Logo" d="M107.45-330.546a9.625,9.625,0,0,1-2.914-6.968,9.064,9.064,0,0,1,2.784-6.774,9.615,9.615,0,0,1,3.205-2,11.184,11.184,0,0,1,4.047-.71,9.571,9.571,0,0,1,7.123,2.9,9.661,9.661,0,0,1,2.849,6.9,9.2,9.2,0,0,1-2.784,6.774,9.829,9.829,0,0,1-7.252,2.774A9.361,9.361,0,0,1,107.45-330.546Zm4.274-11.742a10.459,10.459,0,0,0-.842,2.774,17.312,17.312,0,0,0-.259,2.839q0,1.29.065,2.516.389,4.71,3.432,4.709,2.072,0,3.3-2.9a9.682,9.682,0,0,0,.809-2.742,19.086,19.086,0,0,0,.227-2.807,25.758,25.758,0,0,0-.13-2.581q-.324-4.774-3.237-4.774Q112.953-345.256,111.723-342.288Zm-25.7,11.742a9.625,9.625,0,0,1-2.914-6.968,9.064,9.064,0,0,1,2.784-6.774,9.617,9.617,0,0,1,3.205-2,11.186,11.186,0,0,1,4.047-.71,9.57,9.57,0,0,1,7.123,2.9,9.66,9.66,0,0,1,2.849,6.9,9.2,9.2,0,0,1-2.784,6.774,9.829,9.829,0,0,1-7.252,2.774A9.361,9.361,0,0,1,86.018-330.546Zm4.274-11.742a10.452,10.452,0,0,0-.842,2.774,17.318,17.318,0,0,0-.259,2.839q0,1.29.065,2.516.388,4.71,3.432,4.709,2.072,0,3.3-2.9a9.689,9.689,0,0,0,.809-2.742,19.082,19.082,0,0,0,.227-2.807,25.826,25.826,0,0,0-.13-2.581q-.324-4.774-3.238-4.774Q91.522-345.256,90.292-342.288Zm47.24,14.516a.411.411,0,0,1-.129-.774,5.021,5.021,0,0,0,.935-.671,2.909,2.909,0,0,0,.619-1.071,16.149,16.149,0,0,0,.259-3.871v-3.355q0-6-2.849-6a3.874,3.874,0,0,0-2.137.581q-1.619,1.161-1.619,1.806v6.968a17.769,17.769,0,0,0,.194,3.71,4.557,4.557,0,0,0,.771,1.232,5.8,5.8,0,0,0,.978.671c.262.233.141.733-.13.774,0,0-2.174,0-4.442,0-2.484,0-5.084,0-5.076,0a.419.419,0,0,1-.129-.774,3.64,3.64,0,0,0,1.1-.671,2.907,2.907,0,0,0,.84-.942,14.151,14.151,0,0,0,.324-4v-5.548a13.642,13.642,0,0,0-.129-1.548,5.236,5.236,0,0,0-.259-1.29c-.23-.575-.583-.831-1.748-.838a.346.346,0,0,1-.1-.678c.853-.281,2.384-.474,3.936-1.017s3.071-1.713,3.608-1.854a.516.516,0,0,1,.648.71,9.265,9.265,0,0,0-.324,1.871q-.065.774,0,.774a.186.186,0,0,0,.129-.065.762.762,0,0,1,.194-.129,9.148,9.148,0,0,1,2.2-1.806,8.113,8.113,0,0,1,4.047-1.355,5.378,5.378,0,0,1,2.979.774,5.587,5.587,0,0,1,1.975,2.839q.13,0,.453-.355a7.765,7.765,0,0,1,1.133-.936,15.687,15.687,0,0,1,1.781-1.1,8.863,8.863,0,0,1,3.918-1.226,5.643,5.643,0,0,1,2.72.613,3.954,3.954,0,0,1,1.716,1.839q1.1,2.193,1.1,7.548v2.774q0,1.42.032,2.387a3.884,3.884,0,0,0,.227,1.387,3.955,3.955,0,0,0,.919,1.168,4.451,4.451,0,0,0,1.089.671c.329.212.159.76-.13.774-.011,0-1.58,0-3.441,0-2.724-.006-6.072-.012-6.062,0-.415,0-.429-.648-.13-.774a3.646,3.646,0,0,0,1.036-.671,2.366,2.366,0,0,0,.567-.942,5.41,5.41,0,0,0,.356-1.613q.032-.968.032-2.387v-3.355q0-4.065-1.554-5.484a1.722,1.722,0,0,0-1.263-.516,4.242,4.242,0,0,0-1.457.258,8.988,8.988,0,0,0-1.3.581q-1.36.839-1.36,1.484v.258a38.779,38.779,0,0,1,.194,4v2.774a17.178,17.178,0,0,0,.194,3.71,2.915,2.915,0,0,0,.749,1.232c.486.476.874.457,1.194.671a.442.442,0,0,1-.129.774c0,.01-1.383.013-3.078.013C141.025-327.759,137.547-327.767,137.532-327.772Zm-61.974.005-2.674-.005c-.412-.073-.353-.524-.129-.775a8.639,8.639,0,0,1,1.2-.84,1.812,1.812,0,0,0,.679-.775,3.093,3.093,0,0,0,.356-1.615q.032-.969.032-2.39v-17.57a5.387,5.387,0,0,0-.194-1.841,1.187,1.187,0,0,0-.5-.633,2.342,2.342,0,0,0-1.182-.368c-.527-.03-.435-.415-.162-.614.172-.125,2.231-.492,4.14-1.1,1.007-.32,3.1-1.263,3.274-1.324.468-.129.739.208.648.775q-.13.775-.259,1.485a15.553,15.553,0,0,0-.194,2.842v18.345a13.82,13.82,0,0,0,.194,3.714c.233.715.339.819.815,1.066a4.724,4.724,0,0,1,1.193.84c.332.33.249.724-.13.775-.009.008-1.053.011-2.455.011S77.01-327.764,75.558-327.767ZM50-327.837c-.739-.022-.63-.573-.13-.775a4.841,4.841,0,0,0,1.943-1.55c.441-.705.324-1.852.324-4.005v-15.7a12.143,12.143,0,0,0-.324-4.005,4.307,4.307,0,0,0-1.943-1.486c-.338-.088-.507-.64.137-.646s1.05,0,2.129,0l9.584-.129a10.5,10.5,0,0,1,5.828,1.551,5.829,5.829,0,0,1,2.849,5.233q0,3.165-3.432,5.168a8.148,8.148,0,0,1-1.133.582q-.356.129-.356.194t.421.129a9.243,9.243,0,0,1,1.619.549,7.237,7.237,0,0,1,2.234,1.453,6.613,6.613,0,0,1,2.655,5.1,6.863,6.863,0,0,1-1.23,3.941A9.648,9.648,0,0,1,68-329.29a10.035,10.035,0,0,1-4.274,1.324c-1.554.129-3.886.129-3.886.129s-4.046.01-6.962.01C51.42-327.827,50.245-327.829,50-327.837Zm8.094-4.78a5.161,5.161,0,0,0,.324,2.423,1.472,1.472,0,0,0,1.1.484q.777.064,1.586.064a4.76,4.76,0,0,0,1.619-.291,3.622,3.622,0,0,0,1.457-1,5.985,5.985,0,0,0,1.554-4.522q0-4.458-2.849-6.073a5.091,5.091,0,0,0-2.526-.581H58.093Zm1-21.706q-.615.065-.745.452a7.54,7.54,0,0,0-.259,2.584v7.494h2.266a3.284,3.284,0,0,0,2.655-1.26,5.618,5.618,0,0,0,1.036-3.65q0-5.685-3.561-5.685A13.442,13.442,0,0,0,59.1-354.323Z" transform="translate(-49.469 357.643)" fill="#104744"/>
</svg>
